<?xml version="1.0" encoding="utf-8"?>
<!-- Svg Vector Icons : http://www.onlinewebfonts.com/icon -->
<!DOCTYPE svg PUBLIC "-//W3C//DTD SVG 1.1//EN" "http://www.w3.org/Graphics/SVG/1.1/DTD/svg11.dtd">
<svg version="1.1" xmlns="http://www.w3.org/2000/svg" xmlns:xlink="http://www.w3.org/1999/xlink" x="0px" y="0px" viewBox="0 0 256 256" enable-background="new 0 0 256 256" xml:space="preserve">
<metadata> Svg Vector Icons : http://www.onlinewebfonts.com/icon </metadata>
<g><g><g><path fill="#000000" d="M27.7,10.8c0.1,3.6,13.7,208,13.9,208.2c0.1,0.2,19.5,6.3,42.9,13.6l42.7,13.4l43.5-13c23.9-7.2,43.5-13.1,43.6-13.2c0.1-0.1,2.1-28.6,4.4-63.3c2.4-34.6,5.6-81.6,7-104.4c1.6-22.7,2.7-41.5,2.6-41.6c-0.2-0.1-45.4-0.4-100.5-0.4C39.1,9.9,27.7,10,27.7,10.8z M191.1,62.9c-0.2,3.7-0.5,9.1-0.8,11.9l-0.4,5.1l-24.5,0.4c-13.5,0.2-35.5,0.4-48.9,0.4H92.2v1.9c0,1.1,0.4,6.7,0.9,12.4c0.5,5.7,0.9,11,0.9,11.8v1.4h46.9h46.9v1.3c0,3.3-6.8,76.7-7.1,77c-0.2,0.2-12.2,3.3-26.8,6.9l-26.4,6.5l-25.6-7.6c-17.1-5.1-25.6-7.8-25.6-8.4c-0.4-2.2-3.2-33.6-3.2-35.2V147h10c5.5,0,11.4,0.2,13.1,0.4l3.1,0.4v9.2c0,9,0.1,9.2,1.4,9.7c0.7,0.4,7.6,2.5,15.3,4.8l14,4.2l14.5-4.8L159,166l0.4-7.3c0.2-4,0.5-11.2,0.6-16.1l0.3-8.8h-2.8c-17.4-0.2-86.3-1.7-86.4-1.9c-0.4-0.3-6.4-74.1-6.1-74.4c0.3-0.2,71-1.1,101.9-1.3l24.7-0.1L191.1,62.9z"/></g></g></g>
</svg>